<?xml version="1.0" encoding="UTF-8" standalone="no"?>
<!DOCTYPE svg PUBLIC "-//W3C//DTD SVG 1.1//EN"
 "http://www.w3.org/Graphics/SVG/1.1/DTD/svg11.dtd">
<!-- Generated by graphviz version 2.43.0 (0)
 -->
<!-- Title: SponsoringBot Pages: 1 -->
<svg width="1519pt" height="2741pt"
 viewBox="0.00 0.00 1518.50 2741.00" xmlns="http://www.w3.org/2000/svg" xmlns:xlink="http://www.w3.org/1999/xlink">
<g id="graph0" class="graph" transform="scale(1 1) rotate(0) translate(4 2737)">
<title>SponsoringBot</title>
<polygon fill="white" stroke="transparent" points="-4,4 -4,-2737 1514.5,-2737 1514.5,4 -4,4"/>
<!-- entry -->
<g id="node1" class="node">
<title>entry</title>
<polygon fill="#e8eaf6" stroke="#333333" points="1189,-2733 994,-2733 994,-2677 1189,-2677 1189,-2733"/>
<text text-anchor="middle" x="1091.5" y="-2720.2" font-family="Helvetica,sans-Serif" font-size="11.00">main()</text>
<text text-anchor="middle" x="1091.5" y="-2708.2" font-family="Helvetica,sans-Serif" font-size="11.00">&#45;&#45;url U &#160;| &#160;&#45;&#45;all</text>
<text text-anchor="middle" x="1091.5" y="-2696.2" font-family="Helvetica,sans-Serif" font-size="11.00">mode: dry&#45;run | interactive | yes</text>
<text text-anchor="middle" x="1091.5" y="-2684.2" font-family="Helvetica,sans-Serif" font-size="11.00">&#45;&#45;force &#160;&#45;&#45;verbose</text>
</g>
<!-- fetch -->
<g id="node2" class="node">
<title>fetch</title>
<polygon fill="#e8eaf6" stroke="#333333" points="1326.5,-2631 1112.5,-2631 1112.5,-2595 1326.5,-2595 1326.5,-2631"/>
<text text-anchor="middle" x="1219.5" y="-2616.2" font-family="Helvetica,sans-Serif" font-size="11.00">&#45;&#45;all: fetch sponsoring.json</text>
<text text-anchor="middle" x="1219.5" y="-2604.2" font-family="Helvetica,sans-Serif" font-size="11.00">loop items (source_package known)</text>
</g>
<!-- entry&#45;&gt;fetch -->
<g id="edge1" class="edge">
<title>entry&#45;&gt;fetch</title>
<path fill="none" stroke="#555555" d="M1129.9,-2677C1147.96,-2664.3 1169.28,-2649.31 1186.59,-2637.14"/>
<polygon fill="#555555" stroke="#555555" points="1189.07,-2639.68 1195.24,-2631.06 1185.04,-2633.95 1189.07,-2639.68"/>
<text text-anchor="middle" x="1175.5" y="-2651.8" font-family="Helvetica,sans-Serif" font-size="9.00">&#45;&#45;all</text>
</g>
<!-- triage -->
<g id="node3" class="node">
<title>triage</title>
<polygon fill="#c5cae9" stroke="#333333" points="1137.5,-2549 1045.5,-2549 1045.5,-2513 1137.5,-2513 1137.5,-2549"/>
<text text-anchor="middle" x="1091.5" y="-2528.2" font-family="Helvetica,sans-Serif" font-size="11.00">triage_url(url)</text>
</g>
<!-- entry&#45;&gt;triage -->
<g id="edge2" class="edge">
<title>entry&#45;&gt;triage</title>
<path fill="none" stroke="#555555" d="M1087.94,-2676.68C1085.5,-2654.64 1082.96,-2622.83 1084.5,-2595 1085.15,-2583.18 1086.5,-2570.16 1087.83,-2559.04"/>
<polygon fill="#555555" stroke="#555555" points="1091.31,-2559.43 1089.09,-2549.07 1084.36,-2558.56 1091.31,-2559.43"/>
<text text-anchor="middle" x="1094" y="-2610.8" font-family="Helvetica,sans-Serif" font-size="9.00">&#45;&#45;url</text>
</g>
<!-- fetch&#45;&gt;triage -->
<g id="edge3" class="edge">
<title>fetch&#45;&gt;triage</title>
<path fill="none" stroke="#555555" d="M1192.04,-2594.84C1173.23,-2583.08 1148.08,-2567.36 1127.64,-2554.59"/>
<polygon fill="#555555" stroke="#555555" points="1129.25,-2551.47 1118.91,-2549.13 1125.54,-2557.4 1129.25,-2551.47"/>
<text text-anchor="middle" x="1183" y="-2569.8" font-family="Helvetica,sans-Serif" font-size="9.00">per item</text>
</g>
<!-- load -->
<g id="node4" class="node">
<title>load</title>
<polygon fill="#ffffff" stroke="#333333" points="1145,-2476 1038,-2476 1038,-2440 1145,-2440 1145,-2476"/>
<text text-anchor="middle" x="1091.5" y="-2455.2" font-family="Helvetica,sans-Serif" font-size="11.00">load_url → lp_obj</text>
</g>
<!-- triage&#45;&gt;load -->
<g id="edge4" class="edge">
<title>triage&#45;&gt;load</title>
<path fill="none" stroke="#555555" d="M1091.5,-2512.81C1091.5,-2504.79 1091.5,-2495.05 1091.5,-2486.07"/>
<polygon fill="#555555" stroke="#555555" points="1095,-2486.03 1091.5,-2476.03 1088,-2486.03 1095,-2486.03"/>
</g>
<!-- loaderr -->
<g id="node5" class="node">
<title>loaderr</title>
<polygon fill="#eceff1" stroke="#333333" points="1106.5,-2384 1032.5,-2384 1032.5,-2348 1106.5,-2348 1106.5,-2384"/>
<text text-anchor="middle" x="1069.5" y="-2369.2" font-family="Helvetica,sans-Serif" font-size="11.00">load fails:</text>
<text text-anchor="middle" x="1069.5" y="-2357.2" font-family="Helvetica,sans-Serif" font-size="11.00">log, return</text>
</g>
<!-- load&#45;&gt;loaderr -->
<g id="edge5" class="edge">
<title>load&#45;&gt;loaderr</title>
<path fill="none" stroke="#555555" d="M1087.26,-2439.65C1084.12,-2426.82 1079.79,-2409.11 1076.19,-2394.38"/>
<polygon fill="#555555" stroke="#555555" points="1079.5,-2393.18 1073.73,-2384.3 1072.7,-2394.84 1079.5,-2393.18"/>
<text text-anchor="middle" x="1093.5" y="-2414.8" font-family="Helvetica,sans-Serif" font-size="9.00">error</text>
</g>
<!-- facts -->
<g id="node6" class="node">
<title>facts</title>
<polygon fill="#ffffff" stroke="#333333" points="1312.5,-2394 1124.5,-2394 1124.5,-2338 1312.5,-2338 1312.5,-2394"/>
<text text-anchor="middle" x="1218.5" y="-2381.2" font-family="Helvetica,sans-Serif" font-size="11.00">build_facts</text>
<text text-anchor="middle" x="1218.5" y="-2369.2" font-family="Helvetica,sans-Serif" font-size="11.00">(fingerprint contributor signals:</text>
<text text-anchor="middle" x="1218.5" y="-2357.2" font-family="Helvetica,sans-Serif" font-size="11.00">bugs incl. attachments +</text>
<text text-anchor="middle" x="1218.5" y="-2345.2" font-family="Helvetica,sans-Serif" font-size="11.00">linked&#45;MP review state &#45;&#45; #46)</text>
</g>
<!-- load&#45;&gt;facts -->
<g id="edge6" class="edge">
<title>load&#45;&gt;facts</title>
<path fill="none" stroke="#555555" d="M1115.69,-2439.86C1131.48,-2428.66 1152.64,-2413.68 1171.64,-2400.2"/>
<polygon fill="#555555" stroke="#555555" points="1173.78,-2402.98 1179.92,-2394.34 1169.74,-2397.27 1173.78,-2402.98"/>
<text text-anchor="middle" x="1161" y="-2414.8" font-family="Helvetica,sans-Serif" font-size="9.00">ok</text>
</g>
<!-- gate -->
<g id="node7" class="node">
<title>gate</title>
<polygon fill="#fff9c4" stroke="#333333" points="1218.5,-2301 1060.5,-2269 1218.5,-2237 1376.5,-2269 1218.5,-2301"/>
<text text-anchor="middle" x="1218.5" y="-2272.2" font-family="Helvetica,sans-Serif" font-size="11.00">force? &#160;OR</text>
<text text-anchor="middle" x="1218.5" y="-2260.2" font-family="Helvetica,sans-Serif" font-size="11.00">stored facts ≠ new facts?</text>
</g>
<!-- facts&#45;&gt;gate -->
<g id="edge7" class="edge">
<title>facts&#45;&gt;gate</title>
<path fill="none" stroke="#555555" d="M1218.5,-2337.78C1218.5,-2329.58 1218.5,-2320.39 1218.5,-2311.49"/>
<polygon fill="#555555" stroke="#555555" points="1222,-2311.25 1218.5,-2301.25 1215,-2311.25 1222,-2311.25"/>
</g>
<!-- skip -->
<g id="node8" class="node">
<title>skip</title>
<polygon fill="#eceff1" stroke="#333333" points="1240,-2191 1123,-2191 1123,-2155 1240,-2155 1240,-2191"/>
<text text-anchor="middle" x="1181.5" y="-2176.2" font-family="Helvetica,sans-Serif" font-size="11.00">Skip</text>
<text text-anchor="middle" x="1181.5" y="-2164.2" font-family="Helvetica,sans-Serif" font-size="11.00">(nothing changed)</text>
</g>
<!-- gate&#45;&gt;skip -->
<g id="edge8" class="edge">
<title>gate&#45;&gt;skip</title>
<path fill="none" stroke="#555555" d="M1207.2,-2239.29C1202.35,-2226.97 1196.72,-2212.67 1191.97,-2200.59"/>
<polygon fill="#555555" stroke="#555555" points="1195.14,-2199.09 1188.22,-2191.07 1188.63,-2201.66 1195.14,-2199.09"/>
<text text-anchor="middle" x="1225.5" y="-2211.8" font-family="Helvetica,sans-Serif" font-size="9.00">unchanged</text>
</g>
<!-- c1 -->
<g id="node9" class="node">
<title>c1</title>
<polygon fill="#ffffff" stroke="#333333" points="1439,-2191 1258,-2191 1258,-2155 1439,-2155 1439,-2191"/>
<text text-anchor="middle" x="1348.5" y="-2176.2" font-family="Helvetica,sans-Serif" font-size="11.00">Check 1: administrative_state</text>
<text text-anchor="middle" x="1348.5" y="-2164.2" font-family="Helvetica,sans-Serif" font-size="11.00">(closing)</text>
</g>
<!-- gate&#45;&gt;c1 -->
<g id="edge11" class="edge">
<title>gate&#45;&gt;c1</title>
<path fill="none" stroke="#555555" d="M1252.32,-2243.55C1272.11,-2229.24 1296.95,-2211.27 1316.43,-2197.19"/>
<polygon fill="#555555" stroke="#555555" points="1318.64,-2199.91 1324.7,-2191.21 1314.54,-2194.23 1318.64,-2199.91"/>
<text text-anchor="middle" x="1338.5" y="-2211.8" font-family="Helvetica,sans-Serif" font-size="9.00">changed / forced</text>
</g>
<!-- c1b -->
<g id="node10" class="node">
<title>c1b</title>
<polygon fill="#ffffff" stroke="#333333" points="1293,-2109 1112,-2109 1112,-2073 1293,-2073 1293,-2109"/>
<text text-anchor="middle" x="1202.5" y="-2094.2" font-family="Helvetica,sans-Serif" font-size="11.00">Check 1b: nothing_to_sponsor</text>
<text text-anchor="middle" x="1202.5" y="-2082.2" font-family="Helvetica,sans-Serif" font-size="11.00">(bugs only, closing &#45;&#45; #46)</text>
</g>
<!-- c1&#45;&gt;c1b -->
<g id="edge12" class="edge">
<title>c1&#45;&gt;c1b</title>
<path fill="none" stroke="#555555" d="M1317.18,-2154.84C1295.43,-2142.92 1266.26,-2126.94 1242.79,-2114.07"/>
<polygon fill="#555555" stroke="#555555" points="1244.22,-2110.87 1233.77,-2109.13 1240.86,-2117.01 1244.22,-2110.87"/>
<text text-anchor="middle" x="1306.5" y="-2129.8" font-family="Helvetica,sans-Serif" font-size="9.00">no / None</text>
</g>
<!-- done -->
<g id="node34" class="node">
<title>done</title>
<polygon fill="#c8e6c9" stroke="#333333" points="1150.5,-155 944.5,-155 944.5,-111 1150.5,-111 1150.5,-155"/>
<text text-anchor="middle" x="1047.5" y="-142.2" font-family="Helvetica,sans-Serif" font-size="11.00">DONE</text>
<text text-anchor="middle" x="1047.5" y="-130.2" font-family="Helvetica,sans-Serif" font-size="11.00">comment + unsubscribe_sponsors</text>
<text text-anchor="middle" x="1047.5" y="-118.2" font-family="Helvetica,sans-Serif" font-size="11.00">(MPs: no status write &#45;&#45; #25)</text>
</g>
<!-- c1&#45;&gt;done -->
<g id="edge38" class="edge">
<title>c1&#45;&gt;done</title>
<path fill="none" stroke="#555555" d="M1365.37,-2154.87C1378.5,-2139.68 1394.5,-2116.19 1394.5,-2092 1394.5,-2092 1394.5,-2092 1394.5,-250 1394.5,-199.75 1261.93,-167.3 1160.68,-149.84"/>
<polygon fill="#555555" stroke="#555555" points="1161.12,-146.37 1150.67,-148.15 1159.95,-153.27 1161.12,-146.37"/>
<text text-anchor="middle" x="1452.5" y="-1357.8" font-family="Helvetica,sans-Serif" font-size="9.00">all Ubuntu tasks closed</text>
<text text-anchor="middle" x="1452.5" y="-1347.8" font-family="Helvetica,sans-Serif" font-size="9.00">&amp; ≥1 landed / MP Merged</text>
</g>
<!-- c1bnote -->
<g id="node11" class="node">
<title>c1bnote</title>
<polygon fill="#fffde7" stroke="#333333" points="1236,-2027 1027,-2027 1027,-1959 1242,-1959 1242,-2021 1236,-2027"/>
<polyline fill="none" stroke="#333333" points="1236,-2027 1236,-2021 "/>
<polyline fill="none" stroke="#333333" points="1242,-2021 1236,-2021 "/>
<text text-anchor="middle" x="1134.5" y="-2014.2" font-family="Helvetica,sans-Serif" font-size="11.00">linked MP with ~ubuntu&#45;sponsors</text>
<text text-anchor="middle" x="1134.5" y="-2002.2" font-family="Helvetica,sans-Serif" font-size="11.00">reviewer or an actual review &#45;&gt;</text>
<text text-anchor="middle" x="1134.5" y="-1990.2" font-family="Helvetica,sans-Serif" font-size="11.00">review lives on the MP;</text>
<text text-anchor="middle" x="1134.5" y="-1978.2" font-family="Helvetica,sans-Serif" font-size="11.00">no MP + no patch (sync exempt) &#45;&gt;</text>
<text text-anchor="middle" x="1134.5" y="-1966.2" font-family="Helvetica,sans-Serif" font-size="11.00">nothing to review yet</text>
</g>
<!-- c1b&#45;&gt;c1bnote -->
<g id="edge9" class="edge">
<title>c1b&#45;&gt;c1bnote</title>
<path fill="none" stroke="#555555" stroke-dasharray="1,5" d="M1190.34,-2072.84C1181.4,-2060.22 1168.97,-2042.67 1158.11,-2027.33"/>
</g>
<!-- c2 -->
<g id="node12" class="node">
<title>c2</title>
<polygon fill="#ffffff" stroke="#333333" points="1008.5,-2015 856.5,-2015 856.5,-1971 1008.5,-1971 1008.5,-2015"/>
<text text-anchor="middle" x="932.5" y="-2002.2" font-family="Helvetica,sans-Serif" font-size="11.00">Check 2: target_branch</text>
<text text-anchor="middle" x="932.5" y="-1990.2" font-family="Helvetica,sans-Serif" font-size="11.00">(merge MPs only &#45;&#45; #20)</text>
<text text-anchor="middle" x="932.5" y="-1978.2" font-family="Helvetica,sans-Serif" font-size="11.00">→ incomplete Finding</text>
</g>
<!-- c1b&#45;&gt;c2 -->
<g id="edge13" class="edge">
<title>c1b&#45;&gt;c2</title>
<path fill="none" stroke="#555555" d="M1150.46,-2072.93C1113.28,-2060.57 1062.13,-2043.26 1017.5,-2027 1010.28,-2024.37 1002.75,-2021.55 995.28,-2018.71"/>
<polygon fill="#555555" stroke="#555555" points="996.47,-2015.42 985.87,-2015.12 993.96,-2021.96 996.47,-2015.42"/>
<text text-anchor="middle" x="1115.5" y="-2047.8" font-family="Helvetica,sans-Serif" font-size="9.00">no / None</text>
</g>
<!-- c1b&#45;&gt;done -->
<g id="edge39" class="edge">
<title>c1b&#45;&gt;done</title>
<path fill="none" stroke="#555555" d="M1224.77,-2072.75C1244.6,-2055.28 1270.5,-2026.27 1270.5,-1994 1270.5,-1994 1270.5,-1994 1270.5,-250 1270.5,-194.63 1215.72,-165.65 1160.46,-150.5"/>
<polygon fill="#555555" stroke="#555555" points="1161.07,-147.05 1150.51,-147.92 1159.31,-153.82 1161.07,-147.05"/>
<text text-anchor="middle" x="1318.5" y="-1301.8" font-family="Helvetica,sans-Serif" font-size="9.00">review on linked MP /</text>
<text text-anchor="middle" x="1318.5" y="-1291.8" font-family="Helvetica,sans-Serif" font-size="9.00">no patch to sponsor</text>
</g>
<!-- c3 -->
<g id="node13" class="node">
<title>c3</title>
<polygon fill="#ffffff" stroke="#333333" points="1000.5,-1922 864.5,-1922 864.5,-1886 1000.5,-1886 1000.5,-1922"/>
<text text-anchor="middle" x="932.5" y="-1907.2" font-family="Helvetica,sans-Serif" font-size="11.00">Check 3: mp_conflicts</text>
<text text-anchor="middle" x="932.5" y="-1895.2" font-family="Helvetica,sans-Serif" font-size="11.00">→ incomplete Finding</text>
</g>
<!-- c2&#45;&gt;c3 -->
<g id="edge14" class="edge">
<title>c2&#45;&gt;c3</title>
<path fill="none" stroke="#555555" d="M932.5,-1970.94C932.5,-1959.35 932.5,-1944.83 932.5,-1932.37"/>
<polygon fill="#555555" stroke="#555555" points="936,-1932.07 932.5,-1922.07 929,-1932.07 936,-1932.07"/>
</g>
<!-- c4 -->
<g id="node14" class="node">
<title>c4</title>
<polygon fill="#ffffff" stroke="#333333" points="995,-1840 870,-1840 870,-1804 995,-1804 995,-1840"/>
<text text-anchor="middle" x="932.5" y="-1825.2" font-family="Helvetica,sans-Serif" font-size="11.00">Check 4: empty_diff</text>
<text text-anchor="middle" x="932.5" y="-1813.2" font-family="Helvetica,sans-Serif" font-size="11.00">(closing)</text>
</g>
<!-- c3&#45;&gt;c4 -->
<g id="edge15" class="edge">
<title>c3&#45;&gt;c4</title>
<path fill="none" stroke="#555555" d="M932.5,-1885.64C932.5,-1875.3 932.5,-1861.94 932.5,-1850.22"/>
<polygon fill="#555555" stroke="#555555" points="936,-1850.05 932.5,-1840.05 929,-1850.05 936,-1850.05"/>
<text text-anchor="middle" x="954.5" y="-1860.8" font-family="Helvetica,sans-Serif" font-size="9.00">no / None</text>
</g>
<!-- c5 -->
<g id="node15" class="node">
<title>c5</title>
<polygon fill="#ffffff" stroke="#333333" points="1028,-1767 759,-1767 759,-1723 1028,-1723 1028,-1767"/>
<text text-anchor="middle" x="893.5" y="-1754.2" font-family="Helvetica,sans-Serif" font-size="11.00">Check 5: changelog_bug_reference (#25/#63)</text>
<text text-anchor="middle" x="893.5" y="-1742.2" font-family="Helvetica,sans-Serif" font-size="11.00">MPs + debdiff attachments on bugs</text>
<text text-anchor="middle" x="893.5" y="-1730.2" font-family="Helvetica,sans-Serif" font-size="11.00">→ incomplete Finding</text>
</g>
<!-- c4&#45;&gt;c5 -->
<g id="edge16" class="edge">
<title>c4&#45;&gt;c5</title>
<path fill="none" stroke="#555555" d="M923.65,-1803.98C919.4,-1795.81 914.18,-1785.77 909.29,-1776.36"/>
<polygon fill="#555555" stroke="#555555" points="912.27,-1774.5 904.55,-1767.24 906.06,-1777.73 912.27,-1774.5"/>
</g>
<!-- c4&#45;&gt;done -->
<g id="edge40" class="edge">
<title>c4&#45;&gt;done</title>
<path fill="none" stroke="#555555" d="M995.26,-1811.98C1059.97,-1800.86 1151.5,-1779.26 1151.5,-1746 1151.5,-1746 1151.5,-1746 1151.5,-250 1151.5,-212.34 1120.73,-181.32 1092.66,-160.87"/>
<polygon fill="#555555" stroke="#555555" points="1094.66,-158 1084.46,-155.13 1090.64,-163.73 1094.66,-158"/>
<text text-anchor="middle" x="1203.5" y="-1125.8" font-family="Helvetica,sans-Serif" font-size="9.00">empty diff (landed)</text>
<text text-anchor="middle" x="1203.5" y="-1115.8" font-family="Helvetica,sans-Serif" font-size="9.00">(drops earlier findings)</text>
</g>
<!-- c6 -->
<g id="node16" class="node">
<title>c6</title>
<polygon fill="#ffffff" stroke="#333333" points="934,-1686 737,-1686 737,-1630 934,-1630 934,-1686"/>
<text text-anchor="middle" x="835.5" y="-1673.2" font-family="Helvetica,sans-Serif" font-size="11.00">Check 6: stale_version (#27)</text>
<text text-anchor="middle" x="835.5" y="-1661.2" font-family="Helvetica,sans-Serif" font-size="11.00">mixed: closing (done/pending),</text>
<text text-anchor="middle" x="835.5" y="-1649.2" font-family="Helvetica,sans-Serif" font-size="11.00">queued = in upload queue (#55)</text>
<text text-anchor="middle" x="835.5" y="-1637.2" font-family="Helvetica,sans-Serif" font-size="11.00">or incomplete Finding</text>
</g>
<!-- c5&#45;&gt;c6 -->
<g id="edge17" class="edge">
<title>c5&#45;&gt;c6</title>
<path fill="none" stroke="#555555" d="M879.16,-1722.99C873.3,-1714.4 866.35,-1704.21 859.74,-1694.52"/>
<polygon fill="#555555" stroke="#555555" points="862.58,-1692.48 854.05,-1686.19 856.8,-1696.43 862.58,-1692.48"/>
</g>
<!-- incnote -->
<g id="node17" class="node">
<title>incnote</title>
<polygon fill="#fffde7" stroke="#333333" points="795.5,-1587 565.5,-1587 565.5,-1543 801.5,-1543 801.5,-1581 795.5,-1587"/>
<polyline fill="none" stroke="#333333" points="795.5,-1587 795.5,-1581 "/>
<polyline fill="none" stroke="#333333" points="801.5,-1581 795.5,-1581 "/>
<text text-anchor="middle" x="683.5" y="-1574.2" font-family="Helvetica,sans-Serif" font-size="11.00">every check can also return None:</text>
<text text-anchor="middle" x="683.5" y="-1562.2" font-family="Helvetica,sans-Serif" font-size="11.00">a lookup failed, not &quot;nothing to flag&quot;</text>
<text text-anchor="middle" x="683.5" y="-1550.2" font-family="Helvetica,sans-Serif" font-size="11.00">&#45;&gt; inconclusive=True, keep going (#28)</text>
</g>
<!-- c6&#45;&gt;incnote -->
<g id="edge10" class="edge">
<title>c6&#45;&gt;incnote</title>
<path fill="none" stroke="#555555" stroke-dasharray="1,5" d="M790.31,-1629.94C767.38,-1616.22 739.95,-1599.79 718.63,-1587.03"/>
</g>
<!-- c8 -->
<g id="node18" class="node">
<title>c8</title>
<polygon fill="#ffffff" stroke="#333333" points="547,-1593 318,-1593 318,-1537 547,-1537 547,-1593"/>
<text text-anchor="middle" x="432.5" y="-1580.2" font-family="Helvetica,sans-Serif" font-size="11.00">Check 8: direct_source_edit (#60/#62)</text>
<text text-anchor="middle" x="432.5" y="-1568.2" font-family="Helvetica,sans-Serif" font-size="11.00">upstream files edited, not patched</text>
<text text-anchor="middle" x="432.5" y="-1556.2" font-family="Helvetica,sans-Serif" font-size="11.00">MPs + debdiff attachments on bugs</text>
<text text-anchor="middle" x="432.5" y="-1544.2" font-family="Helvetica,sans-Serif" font-size="11.00">→ incomplete Finding</text>
</g>
<!-- c6&#45;&gt;c8 -->
<g id="edge18" class="edge">
<title>c6&#45;&gt;c8</title>
<path fill="none" stroke="#555555" d="M736.92,-1634.74C682.73,-1622.5 614.96,-1607.2 557.14,-1594.14"/>
<polygon fill="#555555" stroke="#555555" points="557.73,-1590.69 547.2,-1591.9 556.19,-1597.52 557.73,-1590.69"/>
</g>
<!-- notifnote -->
<g id="node28" class="node">
<title>notifnote</title>
<polygon fill="#fffde7" stroke="#333333" points="833.5,-1095 491.5,-1095 491.5,-918 839.5,-918 839.5,-1089 833.5,-1095"/>
<polyline fill="none" stroke="#333333" points="833.5,-1095 833.5,-1089 "/>
<polyline fill="none" stroke="#333333" points="839.5,-1089 833.5,-1089 "/>
<text text-anchor="middle" x="665.5" y="-1082.2" font-family="Helvetica,sans-Serif" font-size="11.00">operator notifications (#48):</text>
<text text-anchor="middle" x="665.5" y="-1070.2" font-family="Helvetica,sans-Serif" font-size="11.00">Mattermost webhook, URL outside the VCS</text>
<text text-anchor="middle" x="665.5" y="-1058.2" font-family="Helvetica,sans-Serif" font-size="11.00">1) MP diff never generated (post&#45;grace,</text>
<text text-anchor="middle" x="665.5" y="-1046.2" font-family="Helvetica,sans-Serif" font-size="11.00">observed once at the LLM phase)</text>
<text text-anchor="middle" x="665.5" y="-1034.2" font-family="Helvetica,sans-Serif" font-size="11.00">2) importer didn&#39;t auto&#45;close (check 6 &#39;done&#39;;</text>
<text text-anchor="middle" x="665.5" y="-1022.2" font-family="Helvetica,sans-Serif" font-size="11.00">replaces the MP comment when configured)</text>
<text text-anchor="middle" x="665.5" y="-1010.2" font-family="Helvetica,sans-Serif" font-size="11.00">best&#45;effort; dry&#45;run only logs</text>
<text text-anchor="middle" x="665.5" y="-985.2" font-family="Helvetica,sans-Serif" font-size="11.00">rich&#45;history diagnosis (#49) on check 6 &#39;done&#39;:</text>
<text text-anchor="middle" x="665.5" y="-973.2" font-family="Helvetica,sans-Serif" font-size="11.00">A) .changes has no Vcs&#45;Git keys &#45;&gt; tooling comment + ping</text>
<text text-anchor="middle" x="665.5" y="-961.2" font-family="Helvetica,sans-Serif" font-size="11.00">B) ancestry of MP tip in uploaded history:</text>
<text text-anchor="middle" x="665.5" y="-949.2" font-family="Helvetica,sans-Serif" font-size="11.00">contained &#45;&gt; importer&#45;bug comment + ping</text>
<text text-anchor="middle" x="665.5" y="-937.2" font-family="Helvetica,sans-Serif" font-size="11.00">diverged &#45;&gt; history&#45;dropped comment + ping</text>
<text text-anchor="middle" x="665.5" y="-925.2" font-family="Helvetica,sans-Serif" font-size="11.00">undeterminable &#45;&gt; plain #48 ping</text>
</g>
<!-- c6&#45;&gt;notifnote -->
<g id="edge23" class="edge">
<title>c6&#45;&gt;notifnote</title>
<path fill="none" stroke="#555555" stroke-dasharray="1,5" d="M832.78,-1629.95C831.19,-1611.87 829.5,-1587.53 829.5,-1566 829.5,-1566 829.5,-1566 829.5,-1182 829.5,-1149.16 813.88,-1119.97 792.29,-1095.3"/>
</g>
<!-- c6&#45;&gt;done -->
<g id="edge41" class="edge">
<title>c6&#45;&gt;done</title>
<path fill="none" stroke="#555555" d="M934.34,-1637.44C969.48,-1624.24 1000.5,-1602.31 1000.5,-1566 1000.5,-1566 1000.5,-1566 1000.5,-250 1000.5,-219.06 1015.04,-186.65 1027.94,-163.98"/>
<polygon fill="#555555" stroke="#555555" points="1031.06,-165.58 1033.14,-155.2 1025.04,-162.02 1031.06,-165.58"/>
<text text-anchor="middle" x="1068.5" y="-863.8" font-family="Helvetica,sans-Serif" font-size="9.00">already uploaded, old enough</text>
</g>
<!-- pend -->
<g id="node36" class="node">
<title>pend</title>
<polygon fill="#d1c4e9" stroke="#333333" points="902.5,-161 736.5,-161 736.5,-105 902.5,-105 902.5,-161"/>
<text text-anchor="middle" x="819.5" y="-148.2" font-family="Helvetica,sans-Serif" font-size="11.00">PENDING_ARCHIVE_IMPORT</text>
<text text-anchor="middle" x="819.5" y="-136.2" font-family="Helvetica,sans-Serif" font-size="11.00">no comment, no writes</text>
<text text-anchor="middle" x="819.5" y="-124.2" font-family="Helvetica,sans-Serif" font-size="11.00">(git&#45;ubuntu importer may</text>
<text text-anchor="middle" x="819.5" y="-112.2" font-family="Helvetica,sans-Serif" font-size="11.00">auto&#45;close first &#45;&#45; #27)</text>
</g>
<!-- c6&#45;&gt;pend -->
<g id="edge42" class="edge">
<title>c6&#45;&gt;pend</title>
<path fill="none" stroke="#555555" d="M850.38,-1629.99C858.73,-1612.32 867.5,-1588.44 867.5,-1566 867.5,-1566 867.5,-1566 867.5,-250 867.5,-221.65 855.11,-192.16 842.92,-170.01"/>
<polygon fill="#555555" stroke="#555555" points="845.93,-168.23 837.92,-161.29 839.86,-171.71 845.93,-168.23"/>
<text text-anchor="middle" x="922.5" y="-868.8" font-family="Helvetica,sans-Serif" font-size="9.00">already uploaded, &lt;24h</text>
<text text-anchor="middle" x="922.5" y="-858.8" font-family="Helvetica,sans-Serif" font-size="9.00">(drops earlier findings)</text>
</g>
<!-- c9 -->
<g id="node19" class="node">
<title>c9</title>
<polygon fill="#ffffff" stroke="#333333" points="556.5,-1500 308.5,-1500 308.5,-1456 556.5,-1456 556.5,-1500"/>
<text text-anchor="middle" x="432.5" y="-1487.2" font-family="Helvetica,sans-Serif" font-size="11.00">Check 9: missing_changelog_stanza (#61)</text>
<text text-anchor="middle" x="432.5" y="-1475.2" font-family="Helvetica,sans-Serif" font-size="11.00">no debian/changelog entry in the diff</text>
<text text-anchor="middle" x="432.5" y="-1463.2" font-family="Helvetica,sans-Serif" font-size="11.00">→ incomplete Finding</text>
</g>
<!-- c8&#45;&gt;c9 -->
<g id="edge19" class="edge">
<title>c8&#45;&gt;c9</title>
<path fill="none" stroke="#555555" d="M432.5,-1536.64C432.5,-1528.22 432.5,-1518.89 432.5,-1510.23"/>
<polygon fill="#555555" stroke="#555555" points="436,-1510.11 432.5,-1500.11 429,-1510.11 436,-1510.11"/>
</g>
<!-- incgate -->
<g id="node20" class="node">
<title>incgate</title>
<polygon fill="#fff9c4" stroke="#333333" points="432.5,-1419 305.57,-1401 432.5,-1383 559.43,-1401 432.5,-1419"/>
<text text-anchor="middle" x="432.5" y="-1398.2" font-family="Helvetica,sans-Serif" font-size="11.00">any check inconclusive?</text>
</g>
<!-- c9&#45;&gt;incgate -->
<g id="edge20" class="edge">
<title>c9&#45;&gt;incgate</title>
<path fill="none" stroke="#555555" d="M432.5,-1455.71C432.5,-1447.46 432.5,-1437.91 432.5,-1429.17"/>
<polygon fill="#555555" stroke="#555555" points="436,-1429.06 432.5,-1419.06 429,-1429.06 436,-1429.06"/>
</g>
<!-- silent -->
<g id="node21" class="node">
<title>silent</title>
<polygon fill="#eceff1" stroke="#333333" points="215,-273 0,-273 0,-229 215,-229 215,-273"/>
<text text-anchor="middle" x="107.5" y="-260.2" font-family="Helvetica,sans-Serif" font-size="11.00">post NOTHING, skip LLM,</text>
<text text-anchor="middle" x="107.5" y="-248.2" font-family="Helvetica,sans-Serif" font-size="11.00">persist nothing &#45;&#45; the aggregate</text>
<text text-anchor="middle" x="107.5" y="-236.2" font-family="Helvetica,sans-Serif" font-size="11.00">must not claim completeness (#44)</text>
</g>
<!-- incgate&#45;&gt;silent -->
<g id="edge21" class="edge">
<title>incgate&#45;&gt;silent</title>
<path fill="none" stroke="#555555" d="M368.19,-1392.11C278.71,-1379.3 127.5,-1350.22 127.5,-1300 127.5,-1300 127.5,-1300 127.5,-386 127.5,-350.49 120.55,-310.26 114.84,-283.23"/>
<polygon fill="#555555" stroke="#555555" points="118.2,-282.23 112.65,-273.21 111.36,-283.72 118.2,-282.23"/>
<text text-anchor="middle" x="135.5" y="-752.8" font-family="Helvetica,sans-Serif" font-size="9.00">yes</text>
</g>
<!-- c7 -->
<g id="node29" class="node">
<title>c7</title>
<polygon fill="#ffffff" stroke="#333333" points="548.5,-1327 322.5,-1327 322.5,-1271 548.5,-1271 548.5,-1327"/>
<text text-anchor="middle" x="435.5" y="-1314.2" font-family="Helvetica,sans-Serif" font-size="11.00">Check 7: sru_newer_series (#58)</text>
<text text-anchor="middle" x="435.5" y="-1302.2" font-family="Helvetica,sans-Serif" font-size="11.00">SRU: fix landed in newer series first?</text>
<text text-anchor="middle" x="435.5" y="-1290.2" font-family="Helvetica,sans-Serif" font-size="11.00">tasks/MPs/patches, LLM escape hatch</text>
<text text-anchor="middle" x="435.5" y="-1278.2" font-family="Helvetica,sans-Serif" font-size="11.00">→ advisory Finding</text>
</g>
<!-- incgate&#45;&gt;c7 -->
<g id="edge24" class="edge">
<title>incgate&#45;&gt;c7</title>
<path fill="none" stroke="#555555" d="M433.01,-1383.04C433.38,-1370.51 433.91,-1352.98 434.38,-1337.25"/>
<polygon fill="#555555" stroke="#555555" points="437.88,-1337.35 434.68,-1327.25 430.88,-1337.14 437.88,-1337.35"/>
<text text-anchor="middle" x="440.5" y="-1352.8" font-family="Helvetica,sans-Serif" font-size="9.00">no</text>
</g>
<!-- llm -->
<g id="node22" class="node">
<title>llm</title>
<polygon fill="#fff9c4" stroke="#333333" points="436.5,-1215 335.5,-1183 436.5,-1151 537.5,-1183 436.5,-1215"/>
<text text-anchor="middle" x="436.5" y="-1186.2" font-family="Helvetica,sans-Serif" font-size="11.00">LLM phase</text>
<text text-anchor="middle" x="436.5" y="-1174.2" font-family="Helvetica,sans-Serif" font-size="11.00">resource_type?</text>
</g>
<!-- tbug -->
<g id="node23" class="node">
<title>tbug</title>
<polygon fill="#ffffff" stroke="#333333" points="473.5,-1024.5 399.5,-1024.5 399.5,-988.5 473.5,-988.5 473.5,-1024.5"/>
<text text-anchor="middle" x="436.5" y="-1003.7" font-family="Helvetica,sans-Serif" font-size="11.00">triage_bug</text>
</g>
<!-- llm&#45;&gt;tbug -->
<g id="edge26" class="edge">
<title>llm&#45;&gt;tbug</title>
<path fill="none" stroke="#555555" d="M436.5,-1150.8C436.5,-1117.83 436.5,-1066.34 436.5,-1034.89"/>
<polygon fill="#555555" stroke="#555555" points="440,-1034.66 436.5,-1024.66 433,-1034.66 440,-1034.66"/>
<text text-anchor="middle" x="471" y="-1120.8" font-family="Helvetica,sans-Serif" font-size="9.00">bug / bug_task</text>
</g>
<!-- tmp -->
<g id="node24" class="node">
<title>tmp</title>
<polygon fill="#f8bbd0" stroke="#333333" points="449.5,-900 231.5,-900 231.5,-832 449.5,-832 449.5,-900"/>
<text text-anchor="middle" x="340.5" y="-887.2" font-family="Helvetica,sans-Serif" font-size="11.00">triage_mp (#47)</text>
<text text-anchor="middle" x="340.5" y="-875.2" font-family="Helvetica,sans-Serif" font-size="11.00">new changelog stanza + debian/ diff</text>
<text text-anchor="middle" x="340.5" y="-863.2" font-family="Helvetica,sans-Serif" font-size="11.00">→ stanza quality (advisory),</text>
<text text-anchor="middle" x="340.5" y="-851.2" font-family="Helvetica,sans-Serif" font-size="11.00">diff consistency + FFe (verify, #53)</text>
<text text-anchor="middle" x="340.5" y="-839.2" font-family="Helvetica,sans-Serif" font-size="11.00">→ question Findings, kind&#45;tagged</text>
</g>
<!-- llm&#45;&gt;tmp -->
<g id="edge27" class="edge">
<title>llm&#45;&gt;tmp</title>
<path fill="none" stroke="#555555" d="M393.8,-1164.29C380.6,-1156.64 367.45,-1146.34 359.5,-1133 318.2,-1063.74 324.3,-965.61 332.42,-909.94"/>
<polygon fill="#555555" stroke="#555555" points="335.88,-910.47 333.95,-900.06 328.96,-909.4 335.88,-910.47"/>
<text text-anchor="middle" x="396" y="-1120.8" font-family="Helvetica,sans-Serif" font-size="9.00">merge_proposal</text>
</g>
<!-- llm&#45;&gt;notifnote -->
<g id="edge22" class="edge">
<title>llm&#45;&gt;notifnote</title>
<path fill="none" stroke="#555555" stroke-dasharray="1,5" d="M468.89,-1161.12C481.71,-1152.64 496.47,-1142.59 509.5,-1133 525.74,-1121.05 542.63,-1108.08 559.04,-1095.15"/>
</g>
<!-- kind -->
<g id="node25" class="node">
<title>kind</title>
<polygon fill="#fff9c4" stroke="#333333" points="479.5,-814 368.89,-796 479.5,-778 590.11,-796 479.5,-814"/>
<text text-anchor="middle" x="479.5" y="-793.2" font-family="Helvetica,sans-Serif" font-size="11.00">SRU? Sync? neither?</text>
</g>
<!-- tbug&#45;&gt;kind -->
<g id="edge28" class="edge">
<title>tbug&#45;&gt;kind</title>
<path fill="none" stroke="#555555" d="M440.11,-988.33C444.48,-967.45 452.08,-931.15 458.5,-900 463.84,-874.12 469.85,-844.58 474.07,-823.78"/>
<polygon fill="#555555" stroke="#555555" points="477.55,-824.27 476.1,-813.77 470.69,-822.88 477.55,-824.27"/>
</g>
<!-- agg -->
<g id="node30" class="node">
<title>agg</title>
<polygon fill="#fff9c4" stroke="#333333" points="391.5,-525 269.78,-507 391.5,-489 513.22,-507 391.5,-525"/>
<text text-anchor="middle" x="391.5" y="-504.2" font-family="Helvetica,sans-Serif" font-size="11.00">any findings collected?</text>
</g>
<!-- tmp&#45;&gt;agg -->
<g id="edge32" class="edge">
<title>tmp&#45;&gt;agg</title>
<path fill="none" stroke="#555555" d="M340.5,-831.61C340.5,-810.03 340.5,-781.36 340.5,-756 340.5,-756 340.5,-756 340.5,-605 340.5,-577.28 357.02,-549.7 371.25,-531.07"/>
<polygon fill="#555555" stroke="#555555" points="374.05,-533.17 377.56,-523.17 368.59,-528.8 374.05,-533.17"/>
</g>
<!-- rev -->
<g id="node26" class="node">
<title>rev</title>
<polygon fill="#f8bbd0" stroke="#333333" points="631,-732 458,-732 458,-696 631,-696 631,-732"/>
<text text-anchor="middle" x="544.5" y="-717.2" font-family="Helvetica,sans-Serif" font-size="11.00">review_sru_template /</text>
<text text-anchor="middle" x="544.5" y="-705.2" font-family="Helvetica,sans-Serif" font-size="11.00">sync checks → opencode CLI</text>
</g>
<!-- kind&#45;&gt;rev -->
<g id="edge29" class="edge">
<title>kind&#45;&gt;rev</title>
<path fill="none" stroke="#555555" d="M491.73,-779.95C500.86,-768.71 513.56,-753.08 524.21,-739.98"/>
<polygon fill="#555555" stroke="#555555" points="526.93,-742.17 530.52,-732.2 521.5,-737.76 526.93,-742.17"/>
<text text-anchor="middle" x="541" y="-752.8" font-family="Helvetica,sans-Serif" font-size="9.00">SRU / sync</text>
</g>
<!-- kind&#45;&gt;agg -->
<g id="edge30" class="edge">
<title>kind&#45;&gt;agg</title>
<path fill="none" stroke="#555555" d="M471.63,-779.26C465.3,-766.54 456.22,-748.17 448.5,-732 431.19,-695.75 421.73,-688.56 410.5,-650 399.15,-611.04 394.55,-564.06 392.71,-535.11"/>
<polygon fill="#555555" stroke="#555555" points="396.19,-534.74 392.13,-524.95 389.2,-535.14 396.19,-534.74"/>
<text text-anchor="middle" x="437" y="-670.8" font-family="Helvetica,sans-Serif" font-size="9.00">neither</text>
</g>
<!-- verd -->
<g id="node27" class="node">
<title>verd</title>
<polygon fill="#fff9c4" stroke="#333333" points="625.5,-650 419.5,-606 625.5,-562 831.5,-606 625.5,-650"/>
<text text-anchor="middle" x="625.5" y="-615.2" font-family="Helvetica,sans-Serif" font-size="11.00">_extract_verdict</text>
<text text-anchor="middle" x="625.5" y="-603.2" font-family="Helvetica,sans-Serif" font-size="11.00">(fail&#45;safe to human)</text>
<text text-anchor="middle" x="625.5" y="-591.2" font-family="Helvetica,sans-Serif" font-size="11.00">INCOMPLETE → incomplete Finding</text>
</g>
<!-- rev&#45;&gt;verd -->
<g id="edge31" class="edge">
<title>rev&#45;&gt;verd</title>
<path fill="none" stroke="#555555" d="M557.51,-695.97C566.58,-684.11 579.12,-667.7 590.96,-652.2"/>
<polygon fill="#555555" stroke="#555555" points="593.78,-654.27 597.07,-644.2 588.22,-650.02 593.78,-654.27"/>
</g>
<!-- verd&#45;&gt;agg -->
<g id="edge33" class="edge">
<title>verd&#45;&gt;agg</title>
<path fill="none" stroke="#555555" d="M556.87,-576.55C515.95,-559.59 465.44,-538.65 431.09,-524.41"/>
<polygon fill="#555555" stroke="#555555" points="432.42,-521.18 421.85,-520.58 429.74,-527.64 432.42,-521.18"/>
</g>
<!-- verd&#45;&gt;done -->
<g id="edge43" class="edge">
<title>verd&#45;&gt;done</title>
<path fill="none" stroke="#555555" d="M640.64,-564.82C663.39,-508.14 710.63,-403.54 774.5,-331 840.44,-256.1 939.86,-193.48 998.77,-160.08"/>
<polygon fill="#555555" stroke="#555555" points="1000.5,-163.12 1007.51,-155.17 997.07,-157.01 1000.5,-163.12"/>
<text text-anchor="middle" x="814" y="-389.8" font-family="Helvetica,sans-Serif" font-size="9.00">SYNCED: close as</text>
<text text-anchor="middle" x="814" y="-379.8" font-family="Helvetica,sans-Serif" font-size="9.00">Fix Released</text>
</g>
<!-- c7&#45;&gt;llm -->
<g id="edge25" class="edge">
<title>c7&#45;&gt;llm</title>
<path fill="none" stroke="#555555" d="M435.74,-1270.98C435.86,-1257.4 436,-1240.63 436.14,-1225.45"/>
<polygon fill="#555555" stroke="#555555" points="439.64,-1225.29 436.23,-1215.26 432.64,-1225.23 439.64,-1225.29"/>
<text text-anchor="middle" x="503.5" y="-1245.8" font-family="Helvetica,sans-Serif" font-size="9.00">fired / clean</text>
<text text-anchor="middle" x="503.5" y="-1235.8" font-family="Helvetica,sans-Serif" font-size="9.00">(None &#45;&gt; silent, like the gate)</text>
</g>
<!-- engaged -->
<g id="node31" class="node">
<title>engaged</title>
<polygon fill="#fff9c4" stroke="#333333" points="383.5,-443 188.5,-387 383.5,-331 578.5,-387 383.5,-443"/>
<text text-anchor="middle" x="383.5" y="-402.2" font-family="Helvetica,sans-Serif" font-size="11.00">human reviewer engaged?</text>
<text text-anchor="middle" x="383.5" y="-390.2" font-family="Helvetica,sans-Serif" font-size="11.00">(MP comment by non&#45;submitter,</text>
<text text-anchor="middle" x="383.5" y="-378.2" font-family="Helvetica,sans-Serif" font-size="11.00">non&#45;bot, non&#45;service&#45;account</text>
<text text-anchor="middle" x="383.5" y="-366.2" font-family="Helvetica,sans-Serif" font-size="11.00">since current diff &#45;&#45; #45)</text>
</g>
<!-- agg&#45;&gt;engaged -->
<g id="edge34" class="edge">
<title>agg&#45;&gt;engaged</title>
<path fill="none" stroke="#555555" d="M390.35,-489.09C389.68,-479.09 388.77,-465.73 387.84,-452"/>
<polygon fill="#555555" stroke="#555555" points="391.33,-451.72 387.16,-441.98 384.34,-452.19 391.33,-451.72"/>
<text text-anchor="middle" x="397.5" y="-463.8" font-family="Helvetica,sans-Serif" font-size="9.00">yes</text>
</g>
<!-- rfh -->
<g id="node33" class="node">
<title>rfh</title>
<polygon fill="#b3e5fc" stroke="#333333" points="670.5,-151 542.5,-151 542.5,-115 670.5,-115 670.5,-151"/>
<text text-anchor="middle" x="606.5" y="-136.2" font-family="Helvetica,sans-Serif" font-size="11.00">READY_FOR_HUMAN</text>
<text text-anchor="middle" x="606.5" y="-124.2" font-family="Helvetica,sans-Serif" font-size="11.00">(no writes)</text>
</g>
<!-- agg&#45;&gt;rfh -->
<g id="edge46" class="edge">
<title>agg&#45;&gt;rfh</title>
<path fill="none" stroke="#555555" d="M448.55,-497.38C490.12,-488.92 546.17,-472.77 587.5,-443 658.19,-392.08 676.37,-367.78 703.5,-285 712.91,-256.28 716.14,-244.45 703.5,-217 691.77,-191.52 667.93,-170.95 646.82,-156.66"/>
<polygon fill="#555555" stroke="#555555" points="648.58,-153.63 638.29,-151.11 644.77,-159.5 648.58,-153.63"/>
<text text-anchor="middle" x="723.5" y="-305.8" font-family="Helvetica,sans-Serif" font-size="9.00">no findings</text>
</g>
<!-- engaged&#45;&gt;silent -->
<g id="edge37" class="edge">
<title>engaged&#45;&gt;silent</title>
<path fill="none" stroke="#555555" d="M312.06,-351.32C264.6,-328.27 203.31,-298.52 160.24,-277.61"/>
<polygon fill="#555555" stroke="#555555" points="161.59,-274.37 151.07,-273.15 158.54,-280.67 161.59,-274.37"/>
<text text-anchor="middle" x="289" y="-305.8" font-family="Helvetica,sans-Serif" font-size="9.00">history unreadable (None)</text>
</g>
<!-- post -->
<g id="node32" class="node">
<title>post</title>
<polygon fill="#ffe0b2" stroke="#333333" points="493.5,-285 233.5,-285 233.5,-217 493.5,-217 493.5,-285"/>
<text text-anchor="middle" x="363.5" y="-272.2" font-family="Helvetica,sans-Serif" font-size="11.00">post ONE aggregated comment</text>
<text text-anchor="middle" x="363.5" y="-260.2" font-family="Helvetica,sans-Serif" font-size="11.00">(#44): intro + &quot;needs fixing&quot;</text>
<text text-anchor="middle" x="363.5" y="-248.2" font-family="Helvetica,sans-Serif" font-size="11.00">bullets [+ &quot;nice to have&quot;] + closing</text>
<text text-anchor="middle" x="363.5" y="-236.2" font-family="Helvetica,sans-Serif" font-size="11.00">MP: vote=&#39;Needs Fixing&#39;</text>
<text text-anchor="middle" x="363.5" y="-224.2" font-family="Helvetica,sans-Serif" font-size="11.00">bug (LLM INCOMPLETE): tasks → Incomplete</text>
</g>
<!-- engaged&#45;&gt;post -->
<g id="edge35" class="edge">
<title>engaged&#45;&gt;post</title>
<path fill="none" stroke="#555555" d="M375.6,-333.04C373.74,-320.59 371.78,-307.47 369.99,-295.49"/>
<polygon fill="#555555" stroke="#555555" points="373.41,-294.68 368.47,-285.31 366.49,-295.71 373.41,-294.68"/>
<text text-anchor="middle" x="378.5" y="-305.8" font-family="Helvetica,sans-Serif" font-size="9.00">no</text>
</g>
<!-- engaged&#45;&gt;rfh -->
<g id="edge36" class="edge">
<title>engaged&#45;&gt;rfh</title>
<path fill="none" stroke="#555555" d="M437.52,-346.35C459.17,-328.95 483.45,-307.4 502.5,-285 525.36,-258.12 523.69,-246.21 543.5,-217 557.08,-196.98 573.65,-175.24 586.4,-159.03"/>
<polygon fill="#555555" stroke="#555555" points="589.21,-161.11 592.67,-151.09 583.72,-156.76 589.21,-161.11"/>
<text text-anchor="middle" x="623.5" y="-253.8" font-family="Helvetica,sans-Serif" font-size="9.00">yes: suppress all findings,</text>
<text text-anchor="middle" x="623.5" y="-243.8" font-family="Helvetica,sans-Serif" font-size="9.00">facts persist (quiet until new push)</text>
</g>
<!-- post&#45;&gt;rfh -->
<g id="edge45" class="edge">
<title>post&#45;&gt;rfh</title>
<path fill="none" stroke="#555555" d="M365.45,-216.77C367.93,-203.3 373.08,-188.67 383.5,-179 404.95,-159.11 476.22,-147.18 532.49,-140.64"/>
<polygon fill="#555555" stroke="#555555" points="532.9,-144.12 542.44,-139.53 532.12,-137.16 532.9,-144.12"/>
<text text-anchor="middle" x="449.5" y="-191.8" font-family="Helvetica,sans-Serif" font-size="9.00">question&#45;tier only</text>
<text text-anchor="middle" x="449.5" y="-181.8" font-family="Helvetica,sans-Serif" font-size="9.00">(advisory comment, no vote)</text>
</g>
<!-- wait -->
<g id="node35" class="node">
<title>wait</title>
<polygon fill="#ffe0b2" stroke="#333333" points="406,-151 233,-151 233,-115 406,-115 406,-151"/>
<text text-anchor="middle" x="319.5" y="-130.2" font-family="Helvetica,sans-Serif" font-size="11.00">WAITING_ON_CONTRIBUTOR</text>
</g>
<!-- post&#45;&gt;wait -->
<g id="edge44" class="edge">
<title>post&#45;&gt;wait</title>
<path fill="none" stroke="#555555" d="M238.68,-216.94C232.16,-211.8 226.32,-205.86 221.5,-199 208.49,-180.5 225.09,-165.84 248.12,-155.16"/>
<polygon fill="#555555" stroke="#555555" points="249.75,-158.26 257.57,-151.11 247,-151.83 249.75,-158.26"/>
<text text-anchor="middle" x="291" y="-186.8" font-family="Helvetica,sans-Serif" font-size="9.00">blocking (incomplete) findings</text>
</g>
<!-- persist -->
<g id="node37" class="node">
<title>persist</title>
<polygon fill="#fffde7" stroke="#333333" points="777,-68 548,-68 548,0 783,0 783,-62 777,-68"/>
<polyline fill="none" stroke="#333333" points="777,-68 777,-62 "/>
<polyline fill="none" stroke="#333333" points="783,-62 777,-62 "/>
<text text-anchor="middle" x="665.5" y="-55.2" font-family="Helvetica,sans-Serif" font-size="11.00">every conclusive path:</text>
<text text-anchor="middle" x="665.5" y="-43.2" font-family="Helvetica,sans-Serif" font-size="11.00">update_status(url, …, facts=new_facts)</text>
<text text-anchor="middle" x="665.5" y="-31.2" font-family="Helvetica,sans-Serif" font-size="11.00">EXCEPT pend + silent (retry next run);</text>
<text text-anchor="middle" x="665.5" y="-19.2" font-family="Helvetica,sans-Serif" font-size="11.00">facts also withheld when a write was</text>
<text text-anchor="middle" x="665.5" y="-7.2" font-family="Helvetica,sans-Serif" font-size="11.00">not performed (dry&#45;run/declined &#45;&#45; #36)</text>
</g>
<!-- rfh&#45;&gt;persist -->
<g id="edge49" class="edge">
<title>rfh&#45;&gt;persist</title>
<path fill="none" stroke="#555555" stroke-dasharray="1,5" d="M617.05,-114.66C624.87,-101.8 635.78,-83.87 645.26,-68.28"/>
</g>
<!-- done&#45;&gt;persist -->
<g id="edge47" class="edge">
<title>done&#45;&gt;persist</title>
<path fill="none" stroke="#555555" stroke-dasharray="1,5" d="M964.61,-110.95C911.51,-97.47 841.78,-79.76 783.01,-64.84"/>
</g>
<!-- wait&#45;&gt;persist -->
<g id="edge48" class="edge">
<title>wait&#45;&gt;persist</title>
<path fill="none" stroke="#555555" stroke-dasharray="1,5" d="M380.16,-114.99C426.39,-102.03 491.46,-83.79 547.8,-68"/>
</g>
<!-- pend&#45;&gt;persist -->
<g id="edge50" class="edge">
<title>pend&#45;&gt;persist</title>
<path fill="none" stroke="#555555" stroke-dasharray="1,5" d="M776.6,-104.98C758.45,-93.54 737.12,-80.11 718.03,-68.09"/>
</g>
</g>
</svg>
