<?xml version="1.0" encoding="UTF-8" standalone="no"?>
<!DOCTYPE svg PUBLIC "-//W3C//DTD SVG 1.1//EN"
 "http://www.w3.org/Graphics/SVG/1.1/DTD/svg11.dtd">
<!-- Generated by graphviz version 2.43.0 (0)
 -->
<!-- Title: SyncTriage Pages: 1 -->
<svg width="1205pt" height="791pt"
 viewBox="0.00 0.00 1205.00 791.00" xmlns="http://www.w3.org/2000/svg" xmlns:xlink="http://www.w3.org/1999/xlink">
<g id="graph0" class="graph" transform="scale(1 1) rotate(0) translate(4 787)">
<title>SyncTriage</title>
<polygon fill="white" stroke="transparent" points="-4,4 -4,-787 1201,-787 1201,4 -4,4"/>
<!-- entry -->
<g id="node1" class="node">
<title>entry</title>
<polygon fill="#e8eaf6" stroke="#333333" points="395,-783 242,-783 242,-747 395,-747 395,-783"/>
<text text-anchor="middle" x="318.5" y="-768.2" font-family="Helvetica,sans-Serif" font-size="11.00">bug title matches /sync/i</text>
<text text-anchor="middle" x="318.5" y="-756.2" font-family="Helvetica,sans-Serif" font-size="11.00">(_is_sync)</text>
</g>
<!-- ffe -->
<g id="node2" class="node">
<title>ffe</title>
<polygon fill="#fffde7" stroke="#333333" points="416.5,-700 190.5,-700 190.5,-608 422.5,-608 422.5,-694 416.5,-700"/>
<polyline fill="none" stroke="#333333" points="416.5,-700 416.5,-694 "/>
<polyline fill="none" stroke="#333333" points="422.5,-694 416.5,-694 "/>
<text text-anchor="middle" x="306.5" y="-687.2" font-family="Helvetica,sans-Serif" font-size="11.00">[BACKLOG] After Feature Freeze</text>
<text text-anchor="middle" x="306.5" y="-675.2" font-family="Helvetica,sans-Serif" font-size="11.00">(release_schedule.FEATURE_FREEZE,</text>
<text text-anchor="middle" x="306.5" y="-663.2" font-family="Helvetica,sans-Serif" font-size="11.00">hand&#45;maintained per cycle &#45;&#45; see #19):</text>
<text text-anchor="middle" x="306.5" y="-651.2" font-family="Helvetica,sans-Serif" font-size="11.00">new&#45;feature syncs need a</text>
<text text-anchor="middle" x="306.5" y="-639.2" font-family="Helvetica,sans-Serif" font-size="11.00">FeatureFreezeException.</text>
<text text-anchor="middle" x="306.5" y="-627.2" font-family="Helvetica,sans-Serif" font-size="11.00">&quot;Is this a new feature?&quot; detection</text>
<text text-anchor="middle" x="306.5" y="-615.2" font-family="Helvetica,sans-Serif" font-size="11.00">deferred to a future shared skill.</text>
</g>
<!-- entry&#45;&gt;ffe -->
<g id="edge1" class="edge">
<title>entry&#45;&gt;ffe</title>
<path fill="none" stroke="#555555" stroke-dasharray="1,5" d="M316.62,-746.97C315.24,-734.39 313.29,-716.66 311.47,-700.12"/>
</g>
<!-- delta -->
<g id="node3" class="node">
<title>delta</title>
<polygon fill="#fff9c4" stroke="#333333" points="693.5,-710 440.5,-654 693.5,-598 946.5,-654 693.5,-710"/>
<text text-anchor="middle" x="693.5" y="-669.2" font-family="Helvetica,sans-Serif" font-size="11.00">Ubuntu delta?</text>
<text text-anchor="middle" x="693.5" y="-657.2" font-family="Helvetica,sans-Serif" font-size="11.00">current published Ubuntu version</text>
<text text-anchor="middle" x="693.5" y="-645.2" font-family="Helvetica,sans-Serif" font-size="11.00">contains &quot;ubuntuN&quot; in revision?</text>
<text text-anchor="middle" x="693.5" y="-633.2" font-family="Helvetica,sans-Serif" font-size="11.00">(&quot;buildN&quot; = no&#45;change rebuild, not a delta)</text>
</g>
<!-- entry&#45;&gt;delta -->
<g id="edge2" class="edge">
<title>entry&#45;&gt;delta</title>
<path fill="none" stroke="#555555" d="M377.09,-746.97C430.2,-731.53 510.06,-708.32 576.25,-689.08"/>
<polygon fill="#555555" stroke="#555555" points="577.29,-692.42 585.91,-686.27 575.33,-685.7 577.29,-692.42"/>
</g>
<!-- synced -->
<g id="node4" class="node">
<title>synced</title>
<polygon fill="#fff9c4" stroke="#333333" points="498.5,-552 277.5,-496 498.5,-440 719.5,-496 498.5,-552"/>
<text text-anchor="middle" x="498.5" y="-511.2" font-family="Helvetica,sans-Serif" font-size="11.00">1.a already synced?</text>
<text text-anchor="middle" x="498.5" y="-499.2" font-family="Helvetica,sans-Serif" font-size="11.00">Launchpad: published Ubuntu &lt;pkg&gt;</text>
<text text-anchor="middle" x="498.5" y="-487.2" font-family="Helvetica,sans-Serif" font-size="11.00">for $devel and $devel&#45;proposed:</text>
<text text-anchor="middle" x="498.5" y="-475.2" font-family="Helvetica,sans-Serif" font-size="11.00">requested&#45;or&#45;newer present?</text>
</g>
<!-- delta&#45;&gt;synced -->
<g id="edge3" class="edge">
<title>delta&#45;&gt;synced</title>
<path fill="none" stroke="#555555" d="M639.44,-609.75C614.41,-589.73 584.59,-565.87 558.83,-545.27"/>
<polygon fill="#555555" stroke="#555555" points="560.98,-542.5 550.98,-538.98 556.6,-547.96 560.98,-542.5"/>
<text text-anchor="middle" x="655.5" y="-572.8" font-family="Helvetica,sans-Serif" font-size="9.00">no (clean sync already)</text>
</g>
<!-- explained -->
<g id="node10" class="node">
<title>explained</title>
<polygon fill="#f8bbd0" stroke="#333333" points="899.5,-212 708.5,-168 899.5,-124 1090.5,-168 899.5,-212"/>
<text text-anchor="middle" x="899.5" y="-177.2" font-family="Helvetica,sans-Serif" font-size="11.00">2.a LLM: delta explained +</text>
<text text-anchor="middle" x="899.5" y="-165.2" font-family="Helvetica,sans-Serif" font-size="11.00">justified as droppable?</text>
<text text-anchor="middle" x="899.5" y="-153.2" font-family="Helvetica,sans-Serif" font-size="11.00">(review_sync_request, existing)</text>
</g>
<!-- delta&#45;&gt;explained -->
<g id="edge10" class="edge">
<title>delta&#45;&gt;explained</title>
<path fill="none" stroke="#555555" d="M714.96,-602.57C754.77,-509.04 839.57,-309.8 878.8,-217.64"/>
<polygon fill="#555555" stroke="#555555" points="882.09,-218.83 882.79,-208.26 875.65,-216.09 882.09,-218.83"/>
<text text-anchor="middle" x="850" y="-414.8" font-family="Helvetica,sans-Serif" font-size="9.00">yes (&quot;ubuntuN&quot; present)</text>
</g>
<!-- close_synced -->
<g id="node5" class="node">
<title>close_synced</title>
<polygon fill="#c8e6c9" stroke="#333333" points="195,-68 0,-68 0,0 195,0 195,-68"/>
<text text-anchor="middle" x="97.5" y="-55.2" font-family="Helvetica,sans-Serif" font-size="11.00">set matching Ubuntu task(s) to</text>
<text text-anchor="middle" x="97.5" y="-43.2" font-family="Helvetica,sans-Serif" font-size="11.00">&quot;Fix Released&quot;</text>
<text text-anchor="middle" x="97.5" y="-31.2" font-family="Helvetica,sans-Serif" font-size="11.00">(the untargeted task, or the one</text>
<text text-anchor="middle" x="97.5" y="-19.2" font-family="Helvetica,sans-Serif" font-size="11.00">nominated to $devel if present)</text>
<text text-anchor="middle" x="97.5" y="-7.2" font-family="Helvetica,sans-Serif" font-size="11.00">comment explaining why</text>
</g>
<!-- synced&#45;&gt;close_synced -->
<g id="edge4" class="edge">
<title>synced&#45;&gt;close_synced</title>
<path fill="none" stroke="#555555" d="M387.03,-468.11C337.86,-452.32 281.59,-428.51 238.5,-394 162.5,-333.12 149.78,-303.52 116.5,-212 100.64,-168.38 96.85,-115.03 96.43,-78.37"/>
<polygon fill="#555555" stroke="#555555" points="99.92,-78.02 96.39,-68.03 92.92,-78.04 99.92,-78.02"/>
<text text-anchor="middle" x="135.5" y="-232.8" font-family="Helvetica,sans-Serif" font-size="9.00">yes</text>
</g>
<!-- in_debian -->
<g id="node6" class="node">
<title>in_debian</title>
<polygon fill="#fff9c4" stroke="#333333" points="498.5,-394 247.5,-326 498.5,-258 749.5,-326 498.5,-394"/>
<text text-anchor="middle" x="498.5" y="-347.2" font-family="Helvetica,sans-Serif" font-size="11.00">1.b requested version in Debian?</text>
<text text-anchor="middle" x="498.5" y="-335.2" font-family="Helvetica,sans-Serif" font-size="11.00">api.ftp&#45;master.debian.org/madison &lt;pkg&gt;:</text>
<text text-anchor="middle" x="498.5" y="-323.2" font-family="Helvetica,sans-Serif" font-size="11.00">unstable, or experimental IF the</text>
<text text-anchor="middle" x="498.5" y="-311.2" font-family="Helvetica,sans-Serif" font-size="11.00">title/description says so</text>
<text text-anchor="middle" x="498.5" y="-299.2" font-family="Helvetica,sans-Serif" font-size="11.00">(live dak db &#45;&#45; no publish&#45;run lag)</text>
</g>
<!-- synced&#45;&gt;in_debian -->
<g id="edge5" class="edge">
<title>synced&#45;&gt;in_debian</title>
<path fill="none" stroke="#555555" d="M498.5,-439.99C498.5,-428.55 498.5,-416.3 498.5,-404.23"/>
<polygon fill="#555555" stroke="#555555" points="502,-404.16 498.5,-394.16 495,-404.16 502,-404.16"/>
<text text-anchor="middle" x="504.5" y="-414.8" font-family="Helvetica,sans-Serif" font-size="9.00">no</text>
</g>
<!-- rfh -->
<g id="node7" class="node">
<title>rfh</title>
<polygon fill="#b3e5fc" stroke="#333333" points="727.5,-52 599.5,-52 599.5,-16 727.5,-16 727.5,-52"/>
<text text-anchor="middle" x="663.5" y="-37.2" font-family="Helvetica,sans-Serif" font-size="11.00">READY_FOR_HUMAN</text>
<text text-anchor="middle" x="663.5" y="-25.2" font-family="Helvetica,sans-Serif" font-size="11.00">(no writes)</text>
</g>
<!-- in_debian&#45;&gt;rfh -->
<g id="edge6" class="edge">
<title>in_debian&#45;&gt;rfh</title>
<path fill="none" stroke="#555555" d="M574.86,-278.58C598.21,-260.64 621.63,-238.1 636.5,-212 663.49,-164.64 666.17,-99.11 665.19,-62.53"/>
<polygon fill="#555555" stroke="#555555" points="668.67,-62.01 664.78,-52.15 661.67,-62.28 668.67,-62.01"/>
<text text-anchor="middle" x="676" y="-165.8" font-family="Helvetica,sans-Serif" font-size="9.00">found</text>
</g>
<!-- justified -->
<g id="node8" class="node">
<title>justified</title>
<polygon fill="#f8bbd0" stroke="#333333" points="376.5,-212 125.5,-168 376.5,-124 627.5,-168 376.5,-212"/>
<text text-anchor="middle" x="376.5" y="-177.2" font-family="Helvetica,sans-Serif" font-size="11.00">LLM: does the description give a</text>
<text text-anchor="middle" x="376.5" y="-165.2" font-family="Helvetica,sans-Serif" font-size="11.00">specific justification for a version</text>
<text text-anchor="middle" x="376.5" y="-153.2" font-family="Helvetica,sans-Serif" font-size="11.00">not currently in the stated Debian pocket?</text>
</g>
<!-- in_debian&#45;&gt;justified -->
<g id="edge7" class="edge">
<title>in_debian&#45;&gt;justified</title>
<path fill="none" stroke="#555555" d="M455.14,-269.56C441.25,-251.8 426.03,-232.33 412.7,-215.29"/>
<polygon fill="#555555" stroke="#555555" points="415.25,-212.86 406.33,-207.14 409.73,-217.18 415.25,-212.86"/>
<text text-anchor="middle" x="453" y="-232.8" font-family="Helvetica,sans-Serif" font-size="9.00">not found</text>
</g>
<!-- justified&#45;&gt;rfh -->
<g id="edge8" class="edge">
<title>justified&#45;&gt;rfh</title>
<path fill="none" stroke="#555555" d="M435.76,-134.32C464.59,-118.91 499.97,-100.72 532.5,-86 556.44,-75.16 583.41,-64.42 606.63,-55.61"/>
<polygon fill="#555555" stroke="#555555" points="607.88,-58.88 616,-52.08 605.41,-52.33 607.88,-58.88"/>
<text text-anchor="middle" x="591" y="-98.8" font-family="Helvetica,sans-Serif" font-size="9.00">yes (special case)</text>
<text text-anchor="middle" x="591" y="-88.8" font-family="Helvetica,sans-Serif" font-size="9.00">leave for human, no write</text>
</g>
<!-- ask_version -->
<g id="node9" class="node">
<title>ask_version</title>
<polygon fill="#ffe0b2" stroke="#333333" points="492.5,-56 260.5,-56 260.5,-12 492.5,-12 492.5,-56"/>
<text text-anchor="middle" x="376.5" y="-43.2" font-family="Helvetica,sans-Serif" font-size="11.00">comment: version not found in Debian,</text>
<text text-anchor="middle" x="376.5" y="-31.2" font-family="Helvetica,sans-Serif" font-size="11.00">please clarify</text>
<text text-anchor="middle" x="376.5" y="-19.2" font-family="Helvetica,sans-Serif" font-size="11.00">set Incomplete</text>
</g>
<!-- justified&#45;&gt;ask_version -->
<g id="edge9" class="edge">
<title>justified&#45;&gt;ask_version</title>
<path fill="none" stroke="#555555" d="M376.5,-123.78C376.5,-104.97 376.5,-83.36 376.5,-66.16"/>
<polygon fill="#555555" stroke="#555555" points="380,-66.09 376.5,-56.09 373,-66.09 380,-66.09"/>
<text text-anchor="middle" x="410" y="-93.8" font-family="Helvetica,sans-Serif" font-size="9.00">no justification</text>
</g>
<!-- explained&#45;&gt;rfh -->
<g id="edge11" class="edge">
<title>explained&#45;&gt;rfh</title>
<path fill="none" stroke="#555555" d="M844.76,-136.38C801.4,-112.13 741.85,-78.82 703.03,-57.11"/>
<polygon fill="#555555" stroke="#555555" points="704.55,-53.95 694.11,-52.12 701.13,-60.06 704.55,-53.95"/>
<text text-anchor="middle" x="799" y="-93.8" font-family="Helvetica,sans-Serif" font-size="9.00">pass</text>
</g>
<!-- ask_delta -->
<g id="node11" class="node">
<title>ask_delta</title>
<polygon fill="#ffe0b2" stroke="#333333" points="988,-56 767,-56 767,-12 988,-12 988,-56"/>
<text text-anchor="middle" x="877.5" y="-43.2" font-family="Helvetica,sans-Serif" font-size="11.00">comment: please explain the Ubuntu</text>
<text text-anchor="middle" x="877.5" y="-31.2" font-family="Helvetica,sans-Serif" font-size="11.00">delta and why it can be dropped</text>
<text text-anchor="middle" x="877.5" y="-19.2" font-family="Helvetica,sans-Serif" font-size="11.00">set Incomplete</text>
</g>
<!-- explained&#45;&gt;ask_delta -->
<g id="edge12" class="edge">
<title>explained&#45;&gt;ask_delta</title>
<path fill="none" stroke="#555555" d="M892.54,-125.23C889.37,-106.22 885.68,-84.09 882.75,-66.5"/>
<polygon fill="#555555" stroke="#555555" points="886.13,-65.5 881.03,-56.21 879.23,-66.65 886.13,-65.5"/>
<text text-anchor="middle" x="917" y="-93.8" font-family="Helvetica,sans-Serif" font-size="9.00">fail / missing</text>
</g>
<!-- backlog -->
<g id="node12" class="node">
<title>backlog</title>
<polygon fill="#fffde7" stroke="#333333" points="1191,-56 1006,-56 1006,-12 1197,-12 1197,-50 1191,-56"/>
<polyline fill="none" stroke="#333333" points="1191,-56 1191,-50 "/>
<polyline fill="none" stroke="#333333" points="1197,-50 1191,-50 "/>
<text text-anchor="middle" x="1101.5" y="-43.2" font-family="Helvetica,sans-Serif" font-size="11.00">2.b [BACKLOG]</text>
<text text-anchor="middle" x="1101.5" y="-31.2" font-family="Helvetica,sans-Serif" font-size="11.00">verify &quot;already in Debian&quot; delta</text>
<text text-anchor="middle" x="1101.5" y="-19.2" font-family="Helvetica,sans-Serif" font-size="11.00">claims are actually true</text>
</g>
<!-- explained&#45;&gt;backlog -->
<g id="edge13" class="edge">
<title>explained&#45;&gt;backlog</title>
<path fill="none" stroke="#555555" stroke-dasharray="1,5" d="M948.4,-135.05C985.88,-110.55 1036.54,-77.45 1069.13,-56.16"/>
</g>
</g>
</svg>
